<svg width="19" height="20" viewBox="0 0 19 20" fill="none" xmlns="http://www.w3.org/2000/svg">
<path fill-rule="evenodd" clip-rule="evenodd" d="M7.922 18.258H3.922C2.625 18.254 1.574 17.207 1.566 15.91V7.95299C1.566 7.51899 1.762 7.10899 2.094 6.83199L2.801 6.30799C3.059 6.03499 3.082 5.61699 2.863 5.31199C2.641 5.00799 2.234 4.90599 1.895 5.06599L1.176 5.60499C0.445 6.16799 0.016 7.03099 0 7.95299V15.918C0.004 18.082 1.758 19.836 3.922 19.84H7.922C8.355 19.84 8.703 19.488 8.703 19.059C8.703 18.625 8.355 18.274 7.922 18.274V18.258Z" fill="#202244"/>
<path fill-rule="evenodd" clip-rule="evenodd" d="M18.7932 7.93419C18.7812 7.02319 18.3632 6.16019 17.6522 5.58619L11.6452 0.797189C10.3242 -0.265811 8.44117 -0.265811 7.12117 0.797189L5.21917 2.18019C4.85917 2.43719 4.77717 2.93419 5.03517 3.29319C5.29317 3.64819 5.78917 3.73019 6.14817 3.47319L8.07817 2.03119C8.83617 1.40619 9.93017 1.40619 10.6882 2.03119L16.6952 6.82019C17.0432 7.09819 17.2462 7.51219 17.2542 7.95319V15.9182C17.2542 17.2152 16.1992 18.2662 14.9062 18.2662H13.1212C12.9382 18.2662 12.7932 18.1172 12.7932 17.9342V14.3442C12.7932 13.1992 11.8672 12.2692 10.7232 12.2662H8.11317C7.56217 12.2662 7.03517 12.4842 6.64517 12.8752C6.25417 13.2662 6.03517 13.7932 6.03517 14.3442V15.7192C6.03517 16.1482 6.38717 16.5002 6.81617 16.5002C7.25017 16.5002 7.60217 16.1482 7.60217 15.7192V14.3442C7.59817 14.2072 7.64817 14.0782 7.74617 13.9802C7.84017 13.8872 7.96917 13.8322 8.10517 13.8322H10.7152C10.9922 13.8322 11.2192 14.0592 11.2192 14.3362V17.9342C11.2232 18.9842 12.0742 19.8322 13.1212 19.8322H14.8592C17.0272 19.8322 18.7812 18.0742 18.7812 15.9102L18.7932 7.93419Z" fill="#202244"/>
</svg>
