<svg width="53" height="34" viewBox="0 0 53 34" fill="none" xmlns="http://www.w3.org/2000/svg">
<path d="M33.75 0V3.75H46.0986L30 19.8486L21.9506 11.7994C21.7766 11.6252 21.5699 11.487 21.3425 11.3927C21.115 11.2985 20.8712 11.2499 20.625 11.2499C20.3788 11.2499 20.135 11.2985 19.9075 11.3927C19.6801 11.487 19.4734 11.6252 19.2994 11.7994L0 31.0986L2.65144 33.75L20.625 15.7764L28.6744 23.8256C28.8484 23.9998 29.055 24.138 29.2825 24.2323C29.51 24.3265 29.7538 24.3751 30 24.3751C30.2462 24.3751 30.49 24.3265 30.7175 24.2323C30.945 24.138 31.1516 23.9998 31.3256 23.8256L48.75 6.40144V18.75H52.5V0H33.75Z" fill="white"/>
</svg>
